<?xml version="1.0" encoding="UTF-8"?>
<svg id="Livello_1" xmlns="http://www.w3.org/2000/svg" version="1.1" viewBox="0 0 532.68 167.36">
  <!-- Generator: Adobe Illustrator 30.0.0, SVG Export Plug-In . SVG Version: 2.1.1 Build 123)  -->
  <path d="M2.71,165.74c-1.81,0-2.71-.66-2.71-1.99,0-1.09.78-1.81,2.35-2.17l4.16-.72c2.53-.48,4.19-1.15,4.98-1.99.78-.84,1.18-2.53,1.18-5.07V47.41c0-2.53-.39-4.22-1.18-5.07-.79-.84-2.44-1.51-4.98-1.99l-4.16-.72c-1.57-.36-2.35-1.09-2.35-2.17,0-1.33.9-1.99,2.71-1.99h33.11c1.81,0,2.71.72,2.71,2.17,0,1.09-.66,1.75-1.99,1.99l-4.89.72c-2.53.36-4.19,1.03-4.98,1.99-.79.97-1.18,2.71-1.18,5.25v45.42c0,1.69.84,2.53,2.53,2.53h35.83c1.69,0,2.53-.84,2.53-2.53v-45.42c0-2.53-.39-4.28-1.18-5.25-.79-.96-2.44-1.63-4.98-1.99l-4.89-.72c-1.33-.24-1.99-.9-1.99-1.99,0-1.45.9-2.17,2.71-2.17h33.11c1.81,0,2.71.66,2.71,1.99,0,1.08-.79,1.81-2.35,2.17l-4.16.72c-2.53.48-4.19,1.15-4.98,1.99-.79.85-1.18,2.53-1.18,5.07v106.39c0,2.53.39,4.22,1.18,5.07.78.85,2.44,1.51,4.98,1.99l4.16.72c1.57.36,2.35,1.08,2.35,2.17,0,1.33-.9,1.99-2.71,1.99h-33.11c-1.81,0-2.71-.72-2.71-2.17,0-1.09.66-1.75,1.99-1.99l4.89-.72c2.53-.36,4.19-1.02,4.98-1.99.78-.96,1.18-2.71,1.18-5.25v-50.12c0-1.69-.85-2.53-2.53-2.53H28.04c-1.69,0-2.53.84-2.53,2.53v50.12c0,2.53.39,4.28,1.18,5.25.78.97,2.44,1.63,4.98,1.99l4.89.72c1.33.24,1.99.9,1.99,1.99,0,1.45-.9,2.17-2.71,2.17H2.71Z"/>
  <path d="M194.51,167.36c-5.79,0-11.22-1.72-16.28-5.16-5.07-3.44-9.5-8.17-13.3-14.2-3.8-6.03-6.76-13.12-8.87-21.26-2.11-8.14-3.17-16.92-3.17-26.33s1.05-18.15,3.17-26.24c2.11-8.08,5.07-15.17,8.87-21.26,3.8-6.09,8.23-10.83,13.3-14.2,5.07-3.38,10.49-5.07,16.28-5.07s11.19,1.69,16.19,5.07c5,3.38,9.44,8.11,13.3,14.2,3.86,6.09,6.84,13.18,8.96,21.26,2.11,8.08,3.17,16.83,3.17,26.24s-1.06,18.18-3.17,26.33c-2.11,8.14-5.1,15.23-8.96,21.26-3.86,6.03-8.29,10.77-13.3,14.2-5.01,3.44-10.4,5.16-16.19,5.16ZM194.51,162.48c8.56,0,15.26-5.13,20.08-15.38,4.82-10.25,7.24-25.81,7.24-46.68s-2.41-36.4-7.24-46.59c-4.83-10.19-11.52-15.29-20.08-15.29s-15.11,5.1-19.99,15.29c-4.89,10.19-7.33,25.72-7.33,46.59s2.44,36.43,7.33,46.68c4.89,10.25,11.55,15.38,19.99,15.38ZM177.32,18.27c-2.53,0-4.68-.87-6.42-2.62-1.75-1.75-2.62-3.95-2.62-6.6s.87-4.82,2.62-6.51c1.75-1.69,3.89-2.53,6.42-2.53s4.64.85,6.33,2.53c1.69,1.69,2.53,3.86,2.53,6.51s-.85,4.86-2.53,6.6c-1.69,1.75-3.8,2.62-6.33,2.62ZM211.7,18.27c-2.53,0-4.68-.87-6.42-2.62-1.75-1.75-2.62-3.95-2.62-6.6s.87-4.82,2.62-6.51c1.75-1.69,3.89-2.53,6.42-2.53s4.64.85,6.33,2.53c1.69,1.69,2.53,3.86,2.53,6.51s-.85,4.86-2.53,6.6c-1.69,1.75-3.8,2.62-6.33,2.62Z"/>
  <path d="M342.52,167.36c-9.77,0-18.03-2.77-24.79-8.32-6.76-5.55-11.88-13.36-15.38-23.43-3.5-10.07-5.25-21.98-5.25-35.73s2.05-24.88,6.15-34.83c4.1-9.95,9.74-17.67,16.92-23.16,7.18-5.49,15.41-8.23,24.7-8.23,4.71,0,8.99.45,12.85,1.36,3.86.91,7.24,2.08,10.13,3.53,1.57.85,2.35,2.11,2.35,3.8l.54,27.5c0,2.05-.72,3.08-2.17,3.08-1.33,0-2.17-.78-2.53-2.35l-1.45-5.43c-2.65-10.01-5.67-16.89-9.05-20.63-3.38-3.74-8.02-5.61-13.93-5.61-8.81,0-16.07,5.22-21.8,15.65-5.73,10.44-8.59,25.54-8.59,45.32s2.92,35.92,8.78,46.59c5.85,10.67,13.36,16.01,22.53,16.01,4.94,0,8.68-1.09,11.22-3.26s3.8-6.21,3.8-12.12v-39.62c0-2.53-.39-4.28-1.18-5.25-.79-.96-2.44-1.57-4.98-1.81l-7.06-.72c-1.57-.12-2.35-.84-2.35-2.17s.9-1.99,2.71-1.99h33.11c1.81,0,2.71.72,2.71,2.17,0,1.09-.67,1.75-1.99,1.99l-2.71.36c-2.66.36-4.22,1.09-4.71,2.17-.48,1.08-.72,2.89-.72,5.43v49.03c0,1.33-.36,2.38-1.08,3.17-.72.79-1.99,1.66-3.8,2.62-2.9,1.45-6.21,2.62-9.95,3.53-3.74.9-8.08,1.36-13.03,1.36Z"/>
  <path d="M519.47,167.36c-10.49,0-17.19-6.88-20.08-20.63l-4.16-20.08c-1.33-6.51-2.8-11.46-4.43-14.84-1.63-3.38-3.86-5.67-6.69-6.88-2.84-1.2-6.73-1.81-11.67-1.81-1.69,0-3.02.45-3.98,1.36-.97.9-1.45,2.02-1.45,3.35v45.23c0,2.53.48,4.25,1.45,5.16.96.9,3.13,1.66,6.51,2.26l6.69,1.09c1.33.24,1.99.9,1.99,1.99,0,1.45-.91,2.17-2.71,2.17h-36.73c-1.81,0-2.71-.66-2.71-1.99,0-1.09.78-1.81,2.35-2.17l4.16-.72c2.53-.48,4.19-1.15,4.98-1.99.78-.84,1.18-2.53,1.18-5.07V47.41c0-2.53-.39-4.22-1.18-5.07-.79-.84-2.44-1.51-4.98-1.99l-4.16-.72c-1.57-.36-2.35-1.09-2.35-2.17,0-1.33.91-1.99,2.71-1.99h36.73c7.12,0,13.45,1.39,19,4.16,5.55,2.78,9.89,6.6,13.03,11.49,3.13,4.89,4.7,10.53,4.7,16.92,0,7.6-2.29,14.45-6.88,20.54-4.58,6.09-10.38,10.4-17.37,12.94-.85.24-1.3.63-1.36,1.18-.06.54.33,1,1.18,1.36,3.86,1.81,6.9,4.34,9.14,7.6,2.23,3.26,3.95,7.6,5.16,13.03l3.98,18.46c1.33,6.27,2.9,10.74,4.71,13.39,1.81,2.65,4.1,3.98,6.88,3.98.96,0,1.84-.15,2.62-.45.78-.3,1.78-.87,2.99-1.72.96-.6,1.87-.75,2.71-.45.84.3,1.27.94,1.27,1.9,0,2.05-1.33,3.83-3.98,5.34-2.66,1.51-5.73,2.26-9.23,2.26ZM479.12,98.61c8.2,0,14.41-2.74,18.64-8.23,4.22-5.49,6.33-12.82,6.33-21.98s-2.44-15.89-7.33-20.9c-4.88-5-11.61-7.51-20.17-7.51-6.39,0-9.59,2.42-9.59,7.24v41.43c0,6.63,4.04,9.95,12.12,9.95Z"/>
</svg>